%TF.GenerationSoftware,KiCad,Pcbnew,(5.99.0-12380-gca33ec05df)*%
%TF.CreationDate,2021-09-27T09:59:53+10:00*%
%TF.ProjectId,anaphase,616e6170-6861-4736-952e-6b696361645f,rev?*%
%TF.SameCoordinates,Original*%
%TF.FileFunction,Profile,NP*%
%FSLAX46Y46*%
G04 Gerber Fmt 4.6, Leading zero omitted, Abs format (unit mm)*
G04 Created by KiCad (PCBNEW (5.99.0-12380-gca33ec05df)) date 2021-09-27 09:59:53*
%MOMM*%
%LPD*%
G01*
G04 APERTURE LIST*
%TA.AperFunction,Profile*%
%ADD10C,0.200000*%
%TD*%
G04 APERTURE END LIST*
D10*
X138462564Y-79843638D02*
X138621953Y-79843638D01*
X151083607Y-77923308D02*
X151083607Y-80042189D01*
X95038986Y-95341413D02*
G75*
G02*
X95474354Y-94784229I496276J60908D01*
G01*
X193279472Y-69091339D02*
X204484260Y-69091339D01*
X185322301Y-93424704D02*
X185322301Y-92258164D01*
X95880006Y-98089429D02*
G75*
G02*
X95322821Y-97654062I-60909J496276D01*
G01*
X97105885Y-94085688D02*
G75*
G02*
X96632549Y-85516841I76026631J8497146D01*
G01*
X174125051Y-52990515D02*
X174279271Y-52514893D01*
X97280906Y-109503783D02*
X101151645Y-109028721D01*
X176069520Y-99222191D02*
G75*
G02*
X175149975Y-97829208I1J1000000D01*
G01*
X163444953Y-76923308D02*
X152083607Y-76923308D01*
X176384972Y-92258164D02*
X176384972Y-94734690D01*
X184322301Y-91258164D02*
X177384972Y-91258164D01*
X99750745Y-97614367D02*
X95880006Y-98089429D01*
X192454205Y-71798984D02*
G75*
G02*
X192279472Y-71234241I825267J564743D01*
G01*
X174125051Y-52990515D02*
G75*
G02*
X173495209Y-53311917I-475622J154220D01*
G01*
X204484260Y-69091339D02*
G75*
G02*
X205484260Y-70091339I0J-1000000D01*
G01*
X160713012Y-85259419D02*
G75*
G02*
X159911610Y-85661293I-801402J598126D01*
G01*
X98540734Y-142789468D02*
G75*
G02*
X97156519Y-142604261I-597176J802110D01*
G01*
X176069521Y-99222191D02*
X180726774Y-99222191D01*
X184322301Y-91258164D02*
G75*
G02*
X185322301Y-92258164I0J-1000000D01*
G01*
X139422160Y-79443362D02*
G75*
G02*
X138621953Y-79843638I-800207J599724D01*
G01*
X144145856Y-108705919D02*
G75*
G02*
X148384406Y-109853848I-27326J-8499956D01*
G01*
X89235491Y-132498696D02*
G75*
G02*
X89503672Y-130896566I865743J678594D01*
G01*
X204513842Y-90756828D02*
G75*
G02*
X205513842Y-91756828I0J-1000000D01*
G01*
X134405929Y-72711787D02*
G75*
G02*
X135405929Y-71711787I1000000J0D01*
G01*
X205484260Y-70091339D02*
X205484260Y-71339647D01*
X142950823Y-74401950D02*
G75*
G02*
X142751030Y-75001674I-1000000J0D01*
G01*
X160483365Y-62843638D02*
X160484296Y-62843638D01*
X101458461Y-135769152D02*
G75*
G02*
X101838879Y-136978241I-547659J-836701D01*
G01*
X192152496Y-91756828D02*
X192152496Y-93643781D01*
X196348610Y-99262886D02*
G75*
G02*
X195526274Y-98831888I0J1000000D01*
G01*
X129229476Y-45534009D02*
G75*
G02*
X134744040Y-45138594I5360266J-36104259D01*
G01*
X134405929Y-72711787D02*
X134405929Y-75040956D01*
X174909113Y-52193492D02*
X184935222Y-55444453D01*
X134744040Y-45138594D02*
X142776648Y-45172551D01*
X192152496Y-91756828D02*
G75*
G02*
X193152496Y-90756828I1000000J0D01*
G01*
X134211495Y-112295906D02*
G75*
G02*
X136899777Y-108682623I2679281J813297D01*
G01*
X185423805Y-57179759D02*
X206281703Y-63942924D01*
X204513842Y-90756828D02*
X193152496Y-90756828D01*
X205484261Y-71339648D02*
G75*
G02*
X205324223Y-71882292I-1000001J1D01*
G01*
X95168684Y-135578601D02*
X100633011Y-137452085D01*
X155279721Y-85661293D02*
X159911610Y-85661293D01*
X96385191Y-132643636D02*
X95506296Y-132643636D01*
X163753114Y-55577841D02*
G75*
G02*
X164753114Y-56577841I0J-1000000D01*
G01*
X110750295Y-116235943D02*
G75*
G03*
X110750295Y-116235943I-1900000J0D01*
G01*
X144145856Y-108705919D02*
X136899777Y-108682623D01*
X174319373Y-122357472D02*
G75*
G02*
X166093374Y-120129145I54820J16499909D01*
G01*
X97129374Y-112373615D02*
X96845539Y-110060968D01*
X151261271Y-80611191D02*
X154457385Y-85230295D01*
X98540735Y-142789468D02*
G75*
G02*
X137985053Y-129072994I41482722J-55718383D01*
G01*
X96632549Y-85516841D02*
X96644405Y-72867847D01*
X163444953Y-76923308D02*
G75*
G02*
X164444953Y-77923308I0J-1000000D01*
G01*
X201781901Y-98861012D02*
G75*
G02*
X200980499Y-99262886I-801402J598126D01*
G01*
X192330160Y-94212783D02*
X195526274Y-98831888D01*
X101838879Y-136978241D02*
G75*
G02*
X100633011Y-137452085I-881544J472102D01*
G01*
X195524014Y-76284937D02*
X192454205Y-71798984D01*
X134626511Y-75667460D02*
G75*
G02*
X134405929Y-75040956I779418J626504D01*
G01*
X142776647Y-45172550D02*
G75*
G02*
X153880422Y-46951830I-154298J-36499675D01*
G01*
X138462564Y-79843638D02*
G75*
G02*
X137683146Y-79470142I0J1000000D01*
G01*
X134626511Y-75667460D02*
X137683146Y-79470142D01*
X96385191Y-132643636D02*
G75*
G02*
X96932850Y-132806934I0J-1000000D01*
G01*
X94506386Y-133630203D02*
G75*
G02*
X95506296Y-132643636I999910J-13433D01*
G01*
X196348610Y-99262886D02*
X200980499Y-99262886D01*
X99750744Y-97614367D02*
G75*
G02*
X100307930Y-98049735I60909J-496277D01*
G01*
X151083607Y-77923308D02*
G75*
G02*
X152083607Y-76923308I1000000J0D01*
G01*
X164444953Y-79927127D02*
X164444953Y-77923308D01*
X192279472Y-71234241D02*
X192279472Y-70091339D01*
X138912596Y-127782961D02*
G75*
G02*
X137985053Y-129072994I-956887J-290463D01*
G01*
X95474354Y-94784229D02*
X96669888Y-94637499D01*
X185423805Y-57179759D02*
G75*
G02*
X185102403Y-56549917I154220J475622D01*
G01*
X205324223Y-71882292D02*
X202494242Y-76262838D01*
X104538475Y-79197967D02*
G75*
G03*
X104538475Y-79197967I-1900000J0D01*
G01*
X161283401Y-62444829D02*
X164552220Y-58099908D01*
X134211494Y-112295906D02*
X138912595Y-127782961D01*
X159483365Y-61467179D02*
X159483365Y-61843638D01*
X196349280Y-76720193D02*
G75*
G02*
X195524014Y-76284937I0J999999D01*
G01*
X142950823Y-74401950D02*
X142950823Y-72711787D01*
X98877622Y-112662802D02*
X97686559Y-112808983D01*
X164444953Y-79927127D02*
G75*
G02*
X164246355Y-80525253I-1000000J0D01*
G01*
X176384972Y-92258164D02*
G75*
G02*
X177384972Y-91258164I1000000J0D01*
G01*
X141950823Y-71711787D02*
G75*
G02*
X142950823Y-72711787I0J-1000000D01*
G01*
X205969940Y-122462628D02*
X174319374Y-122357472D01*
X132274775Y-63517480D02*
G75*
G03*
X132274775Y-63517480I-1900000J0D01*
G01*
X181526981Y-98821914D02*
X185122508Y-94024428D01*
X164753115Y-57498716D02*
G75*
G02*
X164552220Y-58099908I-1000001J0D01*
G01*
X97105885Y-94085686D02*
G75*
G02*
X96669888Y-94637499I-496906J-55537D01*
G01*
X201781901Y-98861012D02*
X205315244Y-94126846D01*
X97686558Y-112808983D02*
G75*
G02*
X97129374Y-112373615I-60908J496276D01*
G01*
X89503672Y-130896566D02*
X95209397Y-127204751D01*
X187228499Y-82482409D02*
G75*
G03*
X187228499Y-82482409I-1900000J0D01*
G01*
X139422160Y-79443361D02*
X142751030Y-75001674D01*
X185256623Y-56074295D02*
X185102403Y-56549917D01*
X101587013Y-108471537D02*
G75*
G02*
X101151645Y-109028721I-496276J-60908D01*
G01*
X206281703Y-63942923D02*
G75*
G02*
X206973263Y-64894167I-308440J-951244D01*
G01*
X97156519Y-142604261D02*
X89235491Y-132498696D01*
X101458461Y-135769152D02*
X96932850Y-132806934D01*
X95322821Y-97654062D02*
X95038986Y-95341414D01*
X150365743Y-103372880D02*
G75*
G03*
X150365743Y-103372880I-1900000J0D01*
G01*
X174279272Y-52514893D02*
G75*
G02*
X174909113Y-52193492I475621J-154220D01*
G01*
X185322301Y-93424704D02*
G75*
G02*
X185122508Y-94024428I-1000000J0D01*
G01*
X141950823Y-71711787D02*
X135405929Y-71711787D01*
X153880422Y-46951830D02*
X173495209Y-53311917D01*
X99927196Y-117110093D02*
X99434807Y-113098170D01*
X164753114Y-57498716D02*
X164753114Y-56577841D01*
X160483365Y-62843638D02*
G75*
G02*
X159483365Y-61843638I0J1000000D01*
G01*
X96644405Y-72867847D02*
G75*
G02*
X97222107Y-63555529I76499966J-71702D01*
G01*
X188228436Y-104375774D02*
G75*
G03*
X188228436Y-104375774I-1900000J0D01*
G01*
X152001107Y-68561301D02*
G75*
G03*
X152001107Y-68561301I-1900000J0D01*
G01*
X98877622Y-112662801D02*
G75*
G02*
X99434807Y-113098170I60908J-496277D01*
G01*
X151261271Y-80611191D02*
G75*
G02*
X151083607Y-80042189I822336J569002D01*
G01*
X94506386Y-133630202D02*
X94493099Y-134619222D01*
X201654280Y-76720194D02*
X196349280Y-76720194D01*
X166093374Y-120129145D02*
X148384406Y-109853848D01*
X161879458Y-56152037D02*
X159578550Y-61041375D01*
X176384972Y-94734690D02*
G75*
G02*
X176304518Y-95127672I-1000000J0D01*
G01*
X176304518Y-95127672D02*
X175149975Y-97829208D01*
X161283401Y-62444829D02*
G75*
G02*
X160484296Y-62843638I-799105J601191D01*
G01*
X163753114Y-55577841D02*
X162784273Y-55577841D01*
X206973263Y-64894167D02*
X206973263Y-121462633D01*
X206973264Y-121462634D02*
G75*
G02*
X205969940Y-122462628I-1000001J1D01*
G01*
X161879457Y-56152037D02*
G75*
G02*
X162784273Y-55577841I904816J-425804D01*
G01*
X97222107Y-63555529D02*
X98799589Y-50792770D01*
X98799589Y-50792770D02*
G75*
G02*
X99645180Y-49926279I992448J-122667D01*
G01*
X160713012Y-85259419D02*
X164246355Y-80525253D01*
X99645180Y-49926279D02*
X129229476Y-45534008D01*
X96845539Y-110060968D02*
G75*
G02*
X97280906Y-109503783I496276J60909D01*
G01*
X181526981Y-98821915D02*
G75*
G02*
X180726774Y-99222191I-800207J599724D01*
G01*
X95168684Y-135578602D02*
G75*
G02*
X94493099Y-134619222I324325J945946D01*
G01*
X101587013Y-108471536D02*
X100307930Y-98049735D01*
X192330160Y-94212783D02*
G75*
G02*
X192152496Y-93643781I822336J569002D01*
G01*
X99927196Y-117110092D02*
G75*
G02*
X95209397Y-127204751I-10421802J-1279084D01*
G01*
X155279721Y-85661293D02*
G75*
G02*
X154457385Y-85230295I0J1000000D01*
G01*
X184935222Y-55444454D02*
G75*
G02*
X185256623Y-56074295I-154220J-475621D01*
G01*
X159483365Y-61467178D02*
G75*
G02*
X159578550Y-61041375I1000000J-1D01*
G01*
X192279472Y-70091339D02*
G75*
G02*
X193279472Y-69091339I1000000J0D01*
G01*
X202494243Y-76262838D02*
G75*
G02*
X201654280Y-76720194I-839963J542644D01*
G01*
X205513842Y-93528720D02*
X205513842Y-91756828D01*
X205513842Y-93528720D02*
G75*
G02*
X205315244Y-94126846I-1000000J0D01*
G01*
M02*
