M48
METRIC
T1C0.300
T2C0.600
T3C1.000
T4C0.650
T5C0.900
%
G90
G05
T1
X100.9Y-126.5
X101.7Y-121.6
X102.7Y-96.0
X103.2Y-109.4
X103.3Y-103.6
X103.4Y-98.9
X103.6Y-106.8
X103.7Y-115.5
X103.8Y-119.3
X104.1Y-129.9
X104.4Y-114.499
X104.7Y-102.4
X104.788Y-112.014
X104.8Y-99.4
X105.1Y-105.1
X105.2Y-114.499
X105.3Y-111.4
X105.5Y-95.6
X105.6Y-101.1
X105.7Y-102.318
X105.7Y-103.794
X106.0Y-113.5
X106.5Y-74.1
X106.5Y-95.8
X106.8Y-111.4
X107.1Y-57.0
X107.3Y-120.6
X107.5Y-132.0
X107.7Y-84.6
X108.0Y-96.6
X108.5Y-108.1
X108.7Y-129.1
X110.28Y-89.83
X111.552Y-91.102
X111.8Y-94.5
X112.0Y-109.5
X112.2Y-113.0
X113.1Y-100.8
X113.5Y-88.0
X113.8Y-112.8
X114.1Y-132.0
X114.3Y-69.1
X114.3Y-81.0
X114.6Y-118.1
X114.6Y-125.4
X114.6Y-129.6
X115.2Y-90.0
X115.3Y-109.7
X115.6Y-85.3
X115.6Y-100.8
X116.0Y-88.6
X116.0Y-89.4
X116.0Y-93.8
X116.1Y-115.1
X116.6Y-108.4
X116.9Y-111.8
X117.8Y-87.9
X117.8Y-89.9
X118.5Y-110.3
X118.8Y-120.7
X119.3Y-118.3
X119.5Y-98.6
X119.7Y-106.8
X119.7Y-126.4
X119.9Y-130.0
X121.0Y-92.3
X121.2Y-87.9
X121.2Y-89.9
X121.3Y-100.3
X121.3Y-120.2
X121.5Y-96.7
X121.5Y-106.1
X121.5Y-114.2
X121.6Y-124.8
X121.824Y-103.124
X122.3Y-88.6
X122.3Y-89.4
X122.9Y-59.3
X123.2Y-126.7
X123.428Y-108.028
X123.5Y-104.1
X123.5Y-123.6
X124.0Y-96.6
X124.8Y-105.6
X125.5Y-74.3
X125.6Y-110.2
X126.0Y-89.4
X126.9Y-105.6
X127.5Y-112.0
X127.6Y-88.6
X127.6Y-121.5
X127.7Y-124.6
X127.7Y-126.7
X128.1Y-54.9
X128.1Y-93.6
X128.4Y-110.2
X128.6Y-50.4
X128.6Y-106.0
X128.638Y-114.138
X128.7Y-52.9
X128.8Y-55.8
X128.8Y-121.2
X128.9Y-98.7
X129.3Y-111.1
X129.5Y-80.3
X129.5Y-84.9
X129.715Y-123.315
X129.9Y-101.4
X130.0Y-97.8
X130.464Y-111.897
X130.519Y-102.3
X130.55Y-118.45
X130.8Y-124.9
X130.9Y-50.4
X131.0Y-98.7
X131.0Y-117.5
X131.1Y-51.9
X131.1Y-53.9
X131.1Y-55.4
X131.5Y-106.5
X131.6Y-114.9
X132.3Y-80.3
X132.3Y-84.7
X132.4Y-99.999
X132.4Y-110.2
X132.5Y-116.8
X132.808Y-101.349
X132.9Y-86.5
X132.965Y-100.565
X133.0Y-94.1
X133.1Y-111.9
X133.3Y-55.0
X133.3Y-57.0
X133.3Y-119.8
X133.3Y-122.3
X133.4Y-50.5
X133.5Y-52.9
X133.6Y-69.9
X133.7Y-92.1
X134.05Y-104.0
X134.1Y-57.0
X134.1Y-119.1
X134.182Y-98.367
X134.2Y-55.8
X134.2Y-95.2
X134.3Y-96.5
X134.4Y-89.0
X134.4Y-92.7
X134.8Y-82.8
X134.974Y-98.474
X135.1Y-91.6
X135.2Y-94.2
X135.5Y-47.6
X135.5Y-60.8
X135.5Y-60.8
X135.5Y-61.6
X135.5Y-61.6
X135.7Y-90.9
X136.5Y-106.1
X136.5Y-107.8
X136.6Y-101.6
X136.699Y-93.91
X136.777Y-93.114
X136.9Y-89.1
X137.7Y-88.6
X138.4Y-86.0
X138.6Y-55.0
X139.287Y-49.688
X139.5Y-104.8
X140.0Y-55.3
X140.0Y-94.1
X140.4Y-84.1
X140.5Y-101.55
X141.7Y-81.8
X142.4Y-87.5
X142.4Y-89.0
X142.481Y-68.798
X142.8Y-103.9
X143.1Y-60.9
X143.1Y-81.8
X143.4Y-98.65
X144.1Y-61.9
X145.4Y-101.3
X146.0Y-96.05
X147.8Y-63.0
X147.8Y-98.9
X148.3Y-76.4
X149.7Y-95.6
X151.1Y-98.9
X152.3Y-52.9
X152.8Y-89.6
X153.2Y-95.6
X154.4Y-98.9
X157.0Y-95.6
X157.1Y-65.0
X157.6Y-73.3
X158.4Y-98.9
X160.7Y-95.6
X162.3Y-98.9
X163.9Y-89.1
X164.3Y-95.6
X165.1Y-63.0
X165.8Y-98.9
X166.7Y-74.5
X167.3Y-95.6
X167.3Y-115.4
X168.7Y-98.8
X169.985Y-58.485
X170.0Y-92.9
X170.6Y-56.4
X171.0Y-82.1
X171.0Y-96.5
X171.115Y-59.615
X172.5Y-90.4
X173.1Y-94.4
X174.8Y-64.7
X174.8Y-69.1
X174.8Y-72.4
X174.8Y-75.7
X174.8Y-78.6
X174.8Y-81.5
X174.8Y-84.7
X174.8Y-88.1
X175.15Y-61.55
X175.2Y-92.3
X175.8Y-105.7
X176.65Y-58.15
X176.65Y-61.4
X177.2Y-90.3
X177.7Y-61.7
X177.85Y-59.3
X178.0Y-64.7
X178.0Y-69.1
X178.0Y-72.6
X178.0Y-75.7
X178.0Y-78.7
X178.0Y-81.6
X178.0Y-84.7
X178.0Y-87.6
X178.05Y-62.8
X178.2Y-107.8
X180.05Y-59.3
X184.9Y-117.1
X191.1Y-64.7
X197.1Y-106.1
X197.9Y-84.0
X199.3Y-118.0
T3
X146.3Y-72.2
X146.3Y-74.74
X146.3Y-77.28
X146.3Y-79.82
T4
X175.458Y-58.23
X175.458Y-58.23
X180.955Y-60.016
X180.955Y-60.016
T5
X145.455Y-88.2
X145.455Y-88.2
X145.455Y-91.2
X145.455Y-91.2
T2
G00X173.764Y-58.815
M15
G01X174.104Y-57.769
M16
G05
G00X174.104Y-57.769
M15
G01X173.764Y-58.815
M16
G05
G00X175.133Y-54.602
M15
G01X175.319Y-54.031
M16
G05
G00X175.319Y-54.031
M15
G01X175.133Y-54.602
M16
G05
G00X181.981Y-61.485
M15
G01X182.321Y-60.439
M16
G05
G00X182.321Y-60.439
M15
G01X181.981Y-61.485
M16
G05
G00X183.35Y-57.272
M15
G01X183.536Y-56.701
M16
G05
G00X183.536Y-56.701
M15
G01X183.35Y-57.272
M16
G05
T0
M30
