%TF.GenerationSoftware,KiCad,Pcbnew,(5.99.0-12380-gca33ec05df)*%
%TF.CreationDate,2021-09-27T09:59:53+10:00*%
%TF.ProjectId,anaphase,616e6170-6861-4736-952e-6b696361645f,rev?*%
%TF.SameCoordinates,Original*%
%TF.FileFunction,Legend,Bot*%
%TF.FilePolarity,Positive*%
%FSLAX46Y46*%
G04 Gerber Fmt 4.6, Leading zero omitted, Abs format (unit mm)*
G04 Created by KiCad (PCBNEW (5.99.0-12380-gca33ec05df)) date 2021-09-27 09:59:53*
%MOMM*%
%LPD*%
G01*
G04 APERTURE LIST*
%ADD10C,0.304800*%
%ADD11C,0.200000*%
%ADD12C,0.152400*%
%ADD13C,0.150000*%
%ADD14C,0.120000*%
G04 APERTURE END LIST*
D10*
X194542857Y-111927180D02*
X193817142Y-111927180D01*
X194688000Y-112362608D02*
X194180000Y-110838608D01*
X193672000Y-112362608D01*
X193164000Y-112362608D02*
X193164000Y-110838608D01*
X192293142Y-112362608D01*
X192293142Y-110838608D01*
X191640000Y-111927180D02*
X190914285Y-111927180D01*
X191785142Y-112362608D02*
X191277142Y-110838608D01*
X190769142Y-112362608D01*
X190261142Y-112362608D02*
X190261142Y-110838608D01*
X189680571Y-110838608D01*
X189535428Y-110911180D01*
X189462857Y-110983751D01*
X189390285Y-111128894D01*
X189390285Y-111346608D01*
X189462857Y-111491751D01*
X189535428Y-111564322D01*
X189680571Y-111636894D01*
X190261142Y-111636894D01*
X188737142Y-112362608D02*
X188737142Y-110838608D01*
X188737142Y-111564322D02*
X187866285Y-111564322D01*
X187866285Y-112362608D02*
X187866285Y-110838608D01*
X187213142Y-111927180D02*
X186487428Y-111927180D01*
X187358285Y-112362608D02*
X186850285Y-110838608D01*
X186342285Y-112362608D01*
X185906857Y-112290037D02*
X185689142Y-112362608D01*
X185326285Y-112362608D01*
X185181142Y-112290037D01*
X185108571Y-112217465D01*
X185036000Y-112072322D01*
X185036000Y-111927180D01*
X185108571Y-111782037D01*
X185181142Y-111709465D01*
X185326285Y-111636894D01*
X185616571Y-111564322D01*
X185761714Y-111491751D01*
X185834285Y-111419180D01*
X185906857Y-111274037D01*
X185906857Y-111128894D01*
X185834285Y-110983751D01*
X185761714Y-110911180D01*
X185616571Y-110838608D01*
X185253714Y-110838608D01*
X185036000Y-110911180D01*
X184382857Y-111564322D02*
X183874857Y-111564322D01*
X183657142Y-112362608D02*
X184382857Y-112362608D01*
X184382857Y-110838608D01*
X183657142Y-110838608D01*
X194760571Y-113437391D02*
X194688000Y-113364820D01*
X194542857Y-113292248D01*
X194180000Y-113292248D01*
X194034857Y-113364820D01*
X193962285Y-113437391D01*
X193889714Y-113582534D01*
X193889714Y-113727677D01*
X193962285Y-113945391D01*
X194833142Y-114816248D01*
X193889714Y-114816248D01*
X192583428Y-113292248D02*
X192873714Y-113292248D01*
X193018857Y-113364820D01*
X193091428Y-113437391D01*
X193236571Y-113655105D01*
X193309142Y-113945391D01*
X193309142Y-114525962D01*
X193236571Y-114671105D01*
X193164000Y-114743677D01*
X193018857Y-114816248D01*
X192728571Y-114816248D01*
X192583428Y-114743677D01*
X192510857Y-114671105D01*
X192438285Y-114525962D01*
X192438285Y-114163105D01*
X192510857Y-114017962D01*
X192583428Y-113945391D01*
X192728571Y-113872820D01*
X193018857Y-113872820D01*
X193164000Y-113945391D01*
X193236571Y-114017962D01*
X193309142Y-114163105D01*
X190696571Y-113219677D02*
X192002857Y-115179105D01*
X189898285Y-113292248D02*
X189753142Y-113292248D01*
X189608000Y-113364820D01*
X189535428Y-113437391D01*
X189462857Y-113582534D01*
X189390285Y-113872820D01*
X189390285Y-114235677D01*
X189462857Y-114525962D01*
X189535428Y-114671105D01*
X189608000Y-114743677D01*
X189753142Y-114816248D01*
X189898285Y-114816248D01*
X190043428Y-114743677D01*
X190116000Y-114671105D01*
X190188571Y-114525962D01*
X190261142Y-114235677D01*
X190261142Y-113872820D01*
X190188571Y-113582534D01*
X190116000Y-113437391D01*
X190043428Y-113364820D01*
X189898285Y-113292248D01*
X188664571Y-114816248D02*
X188374285Y-114816248D01*
X188229142Y-114743677D01*
X188156571Y-114671105D01*
X188011428Y-114453391D01*
X187938857Y-114163105D01*
X187938857Y-113582534D01*
X188011428Y-113437391D01*
X188084000Y-113364820D01*
X188229142Y-113292248D01*
X188519428Y-113292248D01*
X188664571Y-113364820D01*
X188737142Y-113437391D01*
X188809714Y-113582534D01*
X188809714Y-113945391D01*
X188737142Y-114090534D01*
X188664571Y-114163105D01*
X188519428Y-114235677D01*
X188229142Y-114235677D01*
X188084000Y-114163105D01*
X188011428Y-114090534D01*
X187938857Y-113945391D01*
X186197142Y-113219677D02*
X187503428Y-115179105D01*
X185761714Y-113437391D02*
X185689142Y-113364820D01*
X185544000Y-113292248D01*
X185181142Y-113292248D01*
X185036000Y-113364820D01*
X184963428Y-113437391D01*
X184890857Y-113582534D01*
X184890857Y-113727677D01*
X184963428Y-113945391D01*
X185834285Y-114816248D01*
X184890857Y-114816248D01*
X183439428Y-114816248D02*
X184310285Y-114816248D01*
X183874857Y-114816248D02*
X183874857Y-113292248D01*
X184020000Y-113509962D01*
X184165142Y-113655105D01*
X184310285Y-113727677D01*
D11*
X124987906Y-49718367D02*
X105040184Y-51163490D01*
X107930429Y-91058933D02*
X127878152Y-89613811D01*
X105040184Y-51163490D02*
X107930429Y-91058933D01*
X127878152Y-89613811D02*
X124987906Y-49718367D01*
D12*
X152343631Y-72503166D02*
X152227517Y-72541871D01*
X152033993Y-72541871D01*
X151956583Y-72503166D01*
X151917879Y-72464461D01*
X151879174Y-72387052D01*
X151879174Y-72309642D01*
X151917879Y-72232233D01*
X151956583Y-72193528D01*
X152033993Y-72154823D01*
X152188812Y-72116118D01*
X152266221Y-72077414D01*
X152304926Y-72038709D01*
X152343631Y-71961299D01*
X152343631Y-71883890D01*
X152304926Y-71806480D01*
X152266221Y-71767776D01*
X152188812Y-71729071D01*
X151995288Y-71729071D01*
X151879174Y-71767776D01*
X151608240Y-71729071D02*
X151414717Y-72541871D01*
X151259898Y-71961299D01*
X151105079Y-72541871D01*
X150911555Y-71729071D01*
X150601917Y-72541871D02*
X150601917Y-71729071D01*
X150408393Y-71729071D01*
X150292279Y-71767776D01*
X150214869Y-71845185D01*
X150176164Y-71922595D01*
X150137460Y-72077414D01*
X150137460Y-72193528D01*
X150176164Y-72348347D01*
X150214869Y-72425756D01*
X150292279Y-72503166D01*
X150408393Y-72541871D01*
X150601917Y-72541871D01*
X149324660Y-72464461D02*
X149363364Y-72503166D01*
X149479479Y-72541871D01*
X149556888Y-72541871D01*
X149673002Y-72503166D01*
X149750412Y-72425756D01*
X149789117Y-72348347D01*
X149827821Y-72193528D01*
X149827821Y-72077414D01*
X149789117Y-71922595D01*
X149750412Y-71845185D01*
X149673002Y-71767776D01*
X149556888Y-71729071D01*
X149479479Y-71729071D01*
X149363364Y-71767776D01*
X149324660Y-71806480D01*
X148589269Y-72541871D02*
X148976317Y-72541871D01*
X148976317Y-71729071D01*
X148318336Y-72541871D02*
X148318336Y-71729071D01*
X147853879Y-72541871D02*
X148202221Y-72077414D01*
X147853879Y-71729071D02*
X148318336Y-72193528D01*
X151298602Y-75120382D02*
X151182488Y-75159087D01*
X150988964Y-75159087D01*
X150911555Y-75120382D01*
X150872850Y-75081677D01*
X150834145Y-75004268D01*
X150834145Y-74926858D01*
X150872850Y-74849449D01*
X150911555Y-74810744D01*
X150988964Y-74772039D01*
X151143783Y-74733334D01*
X151221193Y-74694630D01*
X151259898Y-74655925D01*
X151298602Y-74578515D01*
X151298602Y-74501106D01*
X151259898Y-74423696D01*
X151221193Y-74384992D01*
X151143783Y-74346287D01*
X150950260Y-74346287D01*
X150834145Y-74384992D01*
X150563212Y-74346287D02*
X150369688Y-75159087D01*
X150214869Y-74578515D01*
X150060050Y-75159087D01*
X149866526Y-74346287D01*
X149556888Y-75159087D02*
X149556888Y-74346287D01*
X149363364Y-74346287D01*
X149247250Y-74384992D01*
X149169840Y-74462401D01*
X149131136Y-74539811D01*
X149092431Y-74694630D01*
X149092431Y-74810744D01*
X149131136Y-74965563D01*
X149169840Y-75042972D01*
X149247250Y-75120382D01*
X149363364Y-75159087D01*
X149556888Y-75159087D01*
X148744088Y-75159087D02*
X148744088Y-74346287D01*
X148202221Y-74346287D02*
X148047402Y-74346287D01*
X147969993Y-74384992D01*
X147892583Y-74462401D01*
X147853879Y-74617220D01*
X147853879Y-74888153D01*
X147892583Y-75042972D01*
X147969993Y-75120382D01*
X148047402Y-75159087D01*
X148202221Y-75159087D01*
X148279631Y-75120382D01*
X148357040Y-75042972D01*
X148395745Y-74888153D01*
X148395745Y-74617220D01*
X148357040Y-74462401D01*
X148279631Y-74384992D01*
X148202221Y-74346287D01*
X149982640Y-77350550D02*
X149866526Y-77389255D01*
X149827821Y-77427960D01*
X149789117Y-77505369D01*
X149789117Y-77621484D01*
X149827821Y-77698893D01*
X149866526Y-77737598D01*
X149943936Y-77776303D01*
X150253574Y-77776303D01*
X150253574Y-76963503D01*
X149982640Y-76963503D01*
X149905231Y-77002208D01*
X149866526Y-77040912D01*
X149827821Y-77118322D01*
X149827821Y-77195731D01*
X149866526Y-77273141D01*
X149905231Y-77311846D01*
X149982640Y-77350550D01*
X150253574Y-77350550D01*
X149479479Y-77544074D02*
X149092431Y-77544074D01*
X149556888Y-77776303D02*
X149285955Y-76963503D01*
X149015021Y-77776303D01*
X148860202Y-76963503D02*
X148395745Y-76963503D01*
X148627974Y-77776303D02*
X148627974Y-76963503D01*
X148240926Y-76963503D02*
X147776469Y-76963503D01*
X148008698Y-77776303D02*
X148008698Y-76963503D01*
X149556888Y-79619424D02*
X149634298Y-79580719D01*
X149750412Y-79580719D01*
X149866526Y-79619424D01*
X149943936Y-79696833D01*
X149982640Y-79774243D01*
X150021345Y-79929062D01*
X150021345Y-80045176D01*
X149982640Y-80199995D01*
X149943936Y-80277404D01*
X149866526Y-80354814D01*
X149750412Y-80393519D01*
X149673002Y-80393519D01*
X149556888Y-80354814D01*
X149518183Y-80316109D01*
X149518183Y-80045176D01*
X149673002Y-80045176D01*
X149169840Y-80393519D02*
X149169840Y-79580719D01*
X148705383Y-80393519D01*
X148705383Y-79580719D01*
X148318336Y-80393519D02*
X148318336Y-79580719D01*
X148124812Y-79580719D01*
X148008698Y-79619424D01*
X147931288Y-79696833D01*
X147892583Y-79774243D01*
X147853879Y-79929062D01*
X147853879Y-80045176D01*
X147892583Y-80199995D01*
X147931288Y-80277404D01*
X148008698Y-80354814D01*
X148124812Y-80393519D01*
X148318336Y-80393519D01*
D10*
X149838120Y-86411788D02*
X149547834Y-86411788D01*
X149402691Y-86484360D01*
X149257548Y-86629502D01*
X149184977Y-86919788D01*
X149184977Y-87427788D01*
X149257548Y-87718074D01*
X149402691Y-87863217D01*
X149547834Y-87935788D01*
X149838120Y-87935788D01*
X149983262Y-87863217D01*
X150128405Y-87718074D01*
X150200977Y-87427788D01*
X150200977Y-86919788D01*
X150128405Y-86629502D01*
X149983262Y-86484360D01*
X149838120Y-86411788D01*
X148531834Y-87935788D02*
X148531834Y-86411788D01*
X147660977Y-87935788D01*
X147660977Y-86411788D01*
X150854120Y-91319068D02*
X150563834Y-91319068D01*
X150418691Y-91391640D01*
X150273548Y-91536782D01*
X150200977Y-91827068D01*
X150200977Y-92335068D01*
X150273548Y-92625354D01*
X150418691Y-92770497D01*
X150563834Y-92843068D01*
X150854120Y-92843068D01*
X150999262Y-92770497D01*
X151144405Y-92625354D01*
X151216977Y-92335068D01*
X151216977Y-91827068D01*
X151144405Y-91536782D01*
X150999262Y-91391640D01*
X150854120Y-91319068D01*
X149039834Y-92044782D02*
X149547834Y-92044782D01*
X149547834Y-92843068D02*
X149547834Y-91319068D01*
X148822120Y-91319068D01*
X147733548Y-92044782D02*
X148241548Y-92044782D01*
X148241548Y-92843068D02*
X148241548Y-91319068D01*
X147515834Y-91319068D01*
X141500977Y-93289428D02*
X142008977Y-92563714D01*
X142371834Y-93289428D02*
X142371834Y-91765428D01*
X141791262Y-91765428D01*
X141646120Y-91838000D01*
X141573548Y-91910571D01*
X141500977Y-92055714D01*
X141500977Y-92273428D01*
X141573548Y-92418571D01*
X141646120Y-92491142D01*
X141791262Y-92563714D01*
X142371834Y-92563714D01*
X140920405Y-93216857D02*
X140702691Y-93289428D01*
X140339834Y-93289428D01*
X140194691Y-93216857D01*
X140122120Y-93144285D01*
X140049548Y-92999142D01*
X140049548Y-92854000D01*
X140122120Y-92708857D01*
X140194691Y-92636285D01*
X140339834Y-92563714D01*
X140630120Y-92491142D01*
X140775262Y-92418571D01*
X140847834Y-92346000D01*
X140920405Y-92200857D01*
X140920405Y-92055714D01*
X140847834Y-91910571D01*
X140775262Y-91838000D01*
X140630120Y-91765428D01*
X140267262Y-91765428D01*
X140049548Y-91838000D01*
X139614120Y-91765428D02*
X138743262Y-91765428D01*
X139178691Y-93289428D02*
X139178691Y-91765428D01*
X132235677Y-79231022D02*
X132163105Y-79013308D01*
X132090534Y-78940737D01*
X131945391Y-78868165D01*
X131727677Y-78868165D01*
X131582534Y-78940737D01*
X131509962Y-79013308D01*
X131437391Y-79158451D01*
X131437391Y-79739022D01*
X132961391Y-79739022D01*
X132961391Y-79231022D01*
X132888820Y-79085880D01*
X132816248Y-79013308D01*
X132671105Y-78940737D01*
X132525962Y-78940737D01*
X132380820Y-79013308D01*
X132308248Y-79085880D01*
X132235677Y-79231022D01*
X132235677Y-79739022D01*
X131872820Y-78287594D02*
X131872820Y-77561880D01*
X131437391Y-78432737D02*
X132961391Y-77924737D01*
X131437391Y-77416737D01*
X132961391Y-77126451D02*
X132961391Y-76255594D01*
X131437391Y-76691022D02*
X132961391Y-76691022D01*
X132961391Y-75965308D02*
X132961391Y-75094451D01*
X131437391Y-75529880D02*
X132961391Y-75529880D01*
X132017962Y-74586451D02*
X132017962Y-73425308D01*
X131437391Y-74005880D02*
X132598534Y-74005880D01*
X129782037Y-79231022D02*
X129709465Y-79013308D01*
X129636894Y-78940737D01*
X129491751Y-78868165D01*
X129274037Y-78868165D01*
X129128894Y-78940737D01*
X129056322Y-79013308D01*
X128983751Y-79158451D01*
X128983751Y-79739022D01*
X130507751Y-79739022D01*
X130507751Y-79231022D01*
X130435180Y-79085880D01*
X130362608Y-79013308D01*
X130217465Y-78940737D01*
X130072322Y-78940737D01*
X129927180Y-79013308D01*
X129854608Y-79085880D01*
X129782037Y-79231022D01*
X129782037Y-79739022D01*
X129419180Y-78287594D02*
X129419180Y-77561880D01*
X128983751Y-78432737D02*
X130507751Y-77924737D01*
X128983751Y-77416737D01*
X130507751Y-77126451D02*
X130507751Y-76255594D01*
X128983751Y-76691022D02*
X130507751Y-76691022D01*
X130507751Y-75965308D02*
X130507751Y-75094451D01*
X128983751Y-75529880D02*
X130507751Y-75529880D01*
X129564322Y-74586451D02*
X129564322Y-73425308D01*
X119473714Y-62691751D02*
X119618857Y-62619180D01*
X119691428Y-62546608D01*
X119764000Y-62401465D01*
X119764000Y-62328894D01*
X119691428Y-62183751D01*
X119618857Y-62111180D01*
X119473714Y-62038608D01*
X119183428Y-62038608D01*
X119038285Y-62111180D01*
X118965714Y-62183751D01*
X118893142Y-62328894D01*
X118893142Y-62401465D01*
X118965714Y-62546608D01*
X119038285Y-62619180D01*
X119183428Y-62691751D01*
X119473714Y-62691751D01*
X119618857Y-62764322D01*
X119691428Y-62836894D01*
X119764000Y-62982037D01*
X119764000Y-63272322D01*
X119691428Y-63417465D01*
X119618857Y-63490037D01*
X119473714Y-63562608D01*
X119183428Y-63562608D01*
X119038285Y-63490037D01*
X118965714Y-63417465D01*
X118893142Y-63272322D01*
X118893142Y-62982037D01*
X118965714Y-62836894D01*
X119038285Y-62764322D01*
X119183428Y-62691751D01*
X117949714Y-62038608D02*
X117804571Y-62038608D01*
X117659428Y-62111180D01*
X117586857Y-62183751D01*
X117514285Y-62328894D01*
X117441714Y-62619180D01*
X117441714Y-62982037D01*
X117514285Y-63272322D01*
X117586857Y-63417465D01*
X117659428Y-63490037D01*
X117804571Y-63562608D01*
X117949714Y-63562608D01*
X118094857Y-63490037D01*
X118167428Y-63417465D01*
X118240000Y-63272322D01*
X118312571Y-62982037D01*
X118312571Y-62619180D01*
X118240000Y-62328894D01*
X118167428Y-62183751D01*
X118094857Y-62111180D01*
X117949714Y-62038608D01*
X116861142Y-62183751D02*
X116788571Y-62111180D01*
X116643428Y-62038608D01*
X116280571Y-62038608D01*
X116135428Y-62111180D01*
X116062857Y-62183751D01*
X115990285Y-62328894D01*
X115990285Y-62474037D01*
X116062857Y-62691751D01*
X116933714Y-63562608D01*
X115990285Y-63562608D01*
X115046857Y-62038608D02*
X114901714Y-62038608D01*
X114756571Y-62111180D01*
X114684000Y-62183751D01*
X114611428Y-62328894D01*
X114538857Y-62619180D01*
X114538857Y-62982037D01*
X114611428Y-63272322D01*
X114684000Y-63417465D01*
X114756571Y-63490037D01*
X114901714Y-63562608D01*
X115046857Y-63562608D01*
X115192000Y-63490037D01*
X115264571Y-63417465D01*
X115337142Y-63272322D01*
X115409714Y-62982037D01*
X115409714Y-62619180D01*
X115337142Y-62328894D01*
X115264571Y-62183751D01*
X115192000Y-62111180D01*
X115046857Y-62038608D01*
X113232571Y-62546608D02*
X113232571Y-63562608D01*
X113595428Y-61966037D02*
X113958285Y-63054608D01*
X113014857Y-63054608D01*
X112144000Y-62038608D02*
X111998857Y-62038608D01*
X111853714Y-62111180D01*
X111781142Y-62183751D01*
X111708571Y-62328894D01*
X111636000Y-62619180D01*
X111636000Y-62982037D01*
X111708571Y-63272322D01*
X111781142Y-63417465D01*
X111853714Y-63490037D01*
X111998857Y-63562608D01*
X112144000Y-63562608D01*
X112289142Y-63490037D01*
X112361714Y-63417465D01*
X112434285Y-63272322D01*
X112506857Y-62982037D01*
X112506857Y-62619180D01*
X112434285Y-62328894D01*
X112361714Y-62183751D01*
X112289142Y-62111180D01*
X112144000Y-62038608D01*
X119510000Y-65217962D02*
X119292285Y-65290534D01*
X119219714Y-65363105D01*
X119147142Y-65508248D01*
X119147142Y-65725962D01*
X119219714Y-65871105D01*
X119292285Y-65943677D01*
X119437428Y-66016248D01*
X120018000Y-66016248D01*
X120018000Y-64492248D01*
X119510000Y-64492248D01*
X119364857Y-64564820D01*
X119292285Y-64637391D01*
X119219714Y-64782534D01*
X119219714Y-64927677D01*
X119292285Y-65072820D01*
X119364857Y-65145391D01*
X119510000Y-65217962D01*
X120018000Y-65217962D01*
X118566571Y-65580820D02*
X117840857Y-65580820D01*
X118711714Y-66016248D02*
X118203714Y-64492248D01*
X117695714Y-66016248D01*
X117405428Y-64492248D02*
X116534571Y-64492248D01*
X116970000Y-66016248D02*
X116970000Y-64492248D01*
X116244285Y-64492248D02*
X115373428Y-64492248D01*
X115808857Y-66016248D02*
X115808857Y-64492248D01*
X114865428Y-65217962D02*
X114357428Y-65217962D01*
X114139714Y-66016248D02*
X114865428Y-66016248D01*
X114865428Y-64492248D01*
X114139714Y-64492248D01*
X112615714Y-66016248D02*
X113123714Y-65290534D01*
X113486571Y-66016248D02*
X113486571Y-64492248D01*
X112906000Y-64492248D01*
X112760857Y-64564820D01*
X112688285Y-64637391D01*
X112615714Y-64782534D01*
X112615714Y-65000248D01*
X112688285Y-65145391D01*
X112760857Y-65217962D01*
X112906000Y-65290534D01*
X113486571Y-65290534D01*
X111672285Y-65290534D02*
X111672285Y-66016248D01*
X112180285Y-64492248D02*
X111672285Y-65290534D01*
X111164285Y-64492248D01*
D13*
%TO.C,C8*%
X111687142Y-103633333D02*
X111734761Y-103585714D01*
X111782380Y-103442857D01*
X111782380Y-103347619D01*
X111734761Y-103204761D01*
X111639523Y-103109523D01*
X111544285Y-103061904D01*
X111353809Y-103014285D01*
X111210952Y-103014285D01*
X111020476Y-103061904D01*
X110925238Y-103109523D01*
X110830000Y-103204761D01*
X110782380Y-103347619D01*
X110782380Y-103442857D01*
X110830000Y-103585714D01*
X110877619Y-103633333D01*
X111210952Y-104204761D02*
X111163333Y-104109523D01*
X111115714Y-104061904D01*
X111020476Y-104014285D01*
X110972857Y-104014285D01*
X110877619Y-104061904D01*
X110830000Y-104109523D01*
X110782380Y-104204761D01*
X110782380Y-104395238D01*
X110830000Y-104490476D01*
X110877619Y-104538095D01*
X110972857Y-104585714D01*
X111020476Y-104585714D01*
X111115714Y-104538095D01*
X111163333Y-104490476D01*
X111210952Y-104395238D01*
X111210952Y-104204761D01*
X111258571Y-104109523D01*
X111306190Y-104061904D01*
X111401428Y-104014285D01*
X111591904Y-104014285D01*
X111687142Y-104061904D01*
X111734761Y-104109523D01*
X111782380Y-104204761D01*
X111782380Y-104395238D01*
X111734761Y-104490476D01*
X111687142Y-104538095D01*
X111591904Y-104585714D01*
X111401428Y-104585714D01*
X111306190Y-104538095D01*
X111258571Y-104490476D01*
X111210952Y-104395238D01*
%TO.C,U4*%
X129461904Y-50252380D02*
X129461904Y-51061904D01*
X129414285Y-51157142D01*
X129366666Y-51204761D01*
X129271428Y-51252380D01*
X129080952Y-51252380D01*
X128985714Y-51204761D01*
X128938095Y-51157142D01*
X128890476Y-51061904D01*
X128890476Y-50252380D01*
X127985714Y-50585714D02*
X127985714Y-51252380D01*
X128223809Y-50204761D02*
X128461904Y-50919047D01*
X127842857Y-50919047D01*
%TO.C,C2*%
X129366666Y-58787142D02*
X129414285Y-58834761D01*
X129557142Y-58882380D01*
X129652380Y-58882380D01*
X129795238Y-58834761D01*
X129890476Y-58739523D01*
X129938095Y-58644285D01*
X129985714Y-58453809D01*
X129985714Y-58310952D01*
X129938095Y-58120476D01*
X129890476Y-58025238D01*
X129795238Y-57930000D01*
X129652380Y-57882380D01*
X129557142Y-57882380D01*
X129414285Y-57930000D01*
X129366666Y-57977619D01*
X128985714Y-57977619D02*
X128938095Y-57930000D01*
X128842857Y-57882380D01*
X128604761Y-57882380D01*
X128509523Y-57930000D01*
X128461904Y-57977619D01*
X128414285Y-58072857D01*
X128414285Y-58168095D01*
X128461904Y-58310952D01*
X129033333Y-58882380D01*
X128414285Y-58882380D01*
%TO.C,D2*%
X138938095Y-50852380D02*
X138938095Y-49852380D01*
X138700000Y-49852380D01*
X138557142Y-49900000D01*
X138461904Y-49995238D01*
X138414285Y-50090476D01*
X138366666Y-50280952D01*
X138366666Y-50423809D01*
X138414285Y-50614285D01*
X138461904Y-50709523D01*
X138557142Y-50804761D01*
X138700000Y-50852380D01*
X138938095Y-50852380D01*
X137985714Y-49947619D02*
X137938095Y-49900000D01*
X137842857Y-49852380D01*
X137604761Y-49852380D01*
X137509523Y-49900000D01*
X137461904Y-49947619D01*
X137414285Y-50042857D01*
X137414285Y-50138095D01*
X137461904Y-50280952D01*
X138033333Y-50852380D01*
X137414285Y-50852380D01*
%TO.C,R8*%
X131066666Y-47922380D02*
X131400000Y-47446190D01*
X131638095Y-47922380D02*
X131638095Y-46922380D01*
X131257142Y-46922380D01*
X131161904Y-46970000D01*
X131114285Y-47017619D01*
X131066666Y-47112857D01*
X131066666Y-47255714D01*
X131114285Y-47350952D01*
X131161904Y-47398571D01*
X131257142Y-47446190D01*
X131638095Y-47446190D01*
X130495238Y-47350952D02*
X130590476Y-47303333D01*
X130638095Y-47255714D01*
X130685714Y-47160476D01*
X130685714Y-47112857D01*
X130638095Y-47017619D01*
X130590476Y-46970000D01*
X130495238Y-46922380D01*
X130304761Y-46922380D01*
X130209523Y-46970000D01*
X130161904Y-47017619D01*
X130114285Y-47112857D01*
X130114285Y-47160476D01*
X130161904Y-47255714D01*
X130209523Y-47303333D01*
X130304761Y-47350952D01*
X130495238Y-47350952D01*
X130590476Y-47398571D01*
X130638095Y-47446190D01*
X130685714Y-47541428D01*
X130685714Y-47731904D01*
X130638095Y-47827142D01*
X130590476Y-47874761D01*
X130495238Y-47922380D01*
X130304761Y-47922380D01*
X130209523Y-47874761D01*
X130161904Y-47827142D01*
X130114285Y-47731904D01*
X130114285Y-47541428D01*
X130161904Y-47446190D01*
X130209523Y-47398571D01*
X130304761Y-47350952D01*
%TO.C,R4*%
X181352380Y-64633333D02*
X180876190Y-64300000D01*
X181352380Y-64061904D02*
X180352380Y-64061904D01*
X180352380Y-64442857D01*
X180400000Y-64538095D01*
X180447619Y-64585714D01*
X180542857Y-64633333D01*
X180685714Y-64633333D01*
X180780952Y-64585714D01*
X180828571Y-64538095D01*
X180876190Y-64442857D01*
X180876190Y-64061904D01*
X180685714Y-65490476D02*
X181352380Y-65490476D01*
X180304761Y-65252380D02*
X181019047Y-65014285D01*
X181019047Y-65633333D01*
%TO.C,J6*%
X102833333Y-72352380D02*
X102833333Y-73066666D01*
X102880952Y-73209523D01*
X102976190Y-73304761D01*
X103119047Y-73352380D01*
X103214285Y-73352380D01*
X101928571Y-72352380D02*
X102119047Y-72352380D01*
X102214285Y-72400000D01*
X102261904Y-72447619D01*
X102357142Y-72590476D01*
X102404761Y-72780952D01*
X102404761Y-73161904D01*
X102357142Y-73257142D01*
X102309523Y-73304761D01*
X102214285Y-73352380D01*
X102023809Y-73352380D01*
X101928571Y-73304761D01*
X101880952Y-73257142D01*
X101833333Y-73161904D01*
X101833333Y-72923809D01*
X101880952Y-72828571D01*
X101928571Y-72780952D01*
X102023809Y-72733333D01*
X102214285Y-72733333D01*
X102309523Y-72780952D01*
X102357142Y-72828571D01*
X102404761Y-72923809D01*
%TO.C,Y2*%
X127855635Y-95917799D02*
X127518917Y-96254517D01*
X128461726Y-95783112D02*
X127855635Y-95917799D01*
X127990322Y-95311708D01*
X127720948Y-95177021D02*
X127720948Y-95109677D01*
X127687276Y-95008662D01*
X127518917Y-94840303D01*
X127417902Y-94806631D01*
X127350559Y-94806631D01*
X127249543Y-94840303D01*
X127182200Y-94907647D01*
X127114856Y-95042334D01*
X127114856Y-95850456D01*
X126677124Y-95412723D01*
%TO.C,J12*%
X111709523Y-121352380D02*
X111709523Y-122066666D01*
X111757142Y-122209523D01*
X111852380Y-122304761D01*
X111995238Y-122352380D01*
X112090476Y-122352380D01*
X110709523Y-122352380D02*
X111280952Y-122352380D01*
X110995238Y-122352380D02*
X110995238Y-121352380D01*
X111090476Y-121495238D01*
X111185714Y-121590476D01*
X111280952Y-121638095D01*
X110328571Y-121447619D02*
X110280952Y-121400000D01*
X110185714Y-121352380D01*
X109947619Y-121352380D01*
X109852380Y-121400000D01*
X109804761Y-121447619D01*
X109757142Y-121542857D01*
X109757142Y-121638095D01*
X109804761Y-121780952D01*
X110376190Y-122352380D01*
X109757142Y-122352380D01*
%TO.C,U2*%
X127325973Y-113551522D02*
X126753553Y-114123942D01*
X126652538Y-114157614D01*
X126585194Y-114157614D01*
X126484179Y-114123942D01*
X126349492Y-113989255D01*
X126315820Y-113888240D01*
X126315820Y-113820896D01*
X126349492Y-113719881D01*
X126921912Y-113147461D01*
X126551522Y-112911759D02*
X126551522Y-112844416D01*
X126517851Y-112743400D01*
X126349492Y-112575042D01*
X126248477Y-112541370D01*
X126181133Y-112541370D01*
X126080118Y-112575042D01*
X126012774Y-112642385D01*
X125945431Y-112777072D01*
X125945431Y-113585194D01*
X125507698Y-113147461D01*
%TO.C,C16*%
X101657142Y-111357142D02*
X101704761Y-111309523D01*
X101752380Y-111166666D01*
X101752380Y-111071428D01*
X101704761Y-110928571D01*
X101609523Y-110833333D01*
X101514285Y-110785714D01*
X101323809Y-110738095D01*
X101180952Y-110738095D01*
X100990476Y-110785714D01*
X100895238Y-110833333D01*
X100800000Y-110928571D01*
X100752380Y-111071428D01*
X100752380Y-111166666D01*
X100800000Y-111309523D01*
X100847619Y-111357142D01*
X101752380Y-112309523D02*
X101752380Y-111738095D01*
X101752380Y-112023809D02*
X100752380Y-112023809D01*
X100895238Y-111928571D01*
X100990476Y-111833333D01*
X101038095Y-111738095D01*
X100752380Y-113166666D02*
X100752380Y-112976190D01*
X100800000Y-112880952D01*
X100847619Y-112833333D01*
X100990476Y-112738095D01*
X101180952Y-112690476D01*
X101561904Y-112690476D01*
X101657142Y-112738095D01*
X101704761Y-112785714D01*
X101752380Y-112880952D01*
X101752380Y-113071428D01*
X101704761Y-113166666D01*
X101657142Y-113214285D01*
X101561904Y-113261904D01*
X101323809Y-113261904D01*
X101228571Y-113214285D01*
X101180952Y-113166666D01*
X101133333Y-113071428D01*
X101133333Y-112880952D01*
X101180952Y-112785714D01*
X101228571Y-112738095D01*
X101323809Y-112690476D01*
%TO.C,C10*%
X114742857Y-97957142D02*
X114790476Y-98004761D01*
X114933333Y-98052380D01*
X115028571Y-98052380D01*
X115171428Y-98004761D01*
X115266666Y-97909523D01*
X115314285Y-97814285D01*
X115361904Y-97623809D01*
X115361904Y-97480952D01*
X115314285Y-97290476D01*
X115266666Y-97195238D01*
X115171428Y-97100000D01*
X115028571Y-97052380D01*
X114933333Y-97052380D01*
X114790476Y-97100000D01*
X114742857Y-97147619D01*
X113790476Y-98052380D02*
X114361904Y-98052380D01*
X114076190Y-98052380D02*
X114076190Y-97052380D01*
X114171428Y-97195238D01*
X114266666Y-97290476D01*
X114361904Y-97338095D01*
X113171428Y-97052380D02*
X113076190Y-97052380D01*
X112980952Y-97100000D01*
X112933333Y-97147619D01*
X112885714Y-97242857D01*
X112838095Y-97433333D01*
X112838095Y-97671428D01*
X112885714Y-97861904D01*
X112933333Y-97957142D01*
X112980952Y-98004761D01*
X113076190Y-98052380D01*
X113171428Y-98052380D01*
X113266666Y-98004761D01*
X113314285Y-97957142D01*
X113361904Y-97861904D01*
X113409523Y-97671428D01*
X113409523Y-97433333D01*
X113361904Y-97242857D01*
X113314285Y-97147619D01*
X113266666Y-97100000D01*
X113171428Y-97052380D01*
%TO.C,J10*%
X134109523Y-120652380D02*
X134109523Y-121366666D01*
X134157142Y-121509523D01*
X134252380Y-121604761D01*
X134395238Y-121652380D01*
X134490476Y-121652380D01*
X133109523Y-121652380D02*
X133680952Y-121652380D01*
X133395238Y-121652380D02*
X133395238Y-120652380D01*
X133490476Y-120795238D01*
X133585714Y-120890476D01*
X133680952Y-120938095D01*
X132490476Y-120652380D02*
X132395238Y-120652380D01*
X132300000Y-120700000D01*
X132252380Y-120747619D01*
X132204761Y-120842857D01*
X132157142Y-121033333D01*
X132157142Y-121271428D01*
X132204761Y-121461904D01*
X132252380Y-121557142D01*
X132300000Y-121604761D01*
X132395238Y-121652380D01*
X132490476Y-121652380D01*
X132585714Y-121604761D01*
X132633333Y-121557142D01*
X132680952Y-121461904D01*
X132728571Y-121271428D01*
X132728571Y-121033333D01*
X132680952Y-120842857D01*
X132633333Y-120747619D01*
X132585714Y-120700000D01*
X132490476Y-120652380D01*
%TO.C,R6*%
X127352380Y-55433333D02*
X126876190Y-55100000D01*
X127352380Y-54861904D02*
X126352380Y-54861904D01*
X126352380Y-55242857D01*
X126400000Y-55338095D01*
X126447619Y-55385714D01*
X126542857Y-55433333D01*
X126685714Y-55433333D01*
X126780952Y-55385714D01*
X126828571Y-55338095D01*
X126876190Y-55242857D01*
X126876190Y-54861904D01*
X126352380Y-56290476D02*
X126352380Y-56100000D01*
X126400000Y-56004761D01*
X126447619Y-55957142D01*
X126590476Y-55861904D01*
X126780952Y-55814285D01*
X127161904Y-55814285D01*
X127257142Y-55861904D01*
X127304761Y-55909523D01*
X127352380Y-56004761D01*
X127352380Y-56195238D01*
X127304761Y-56290476D01*
X127257142Y-56338095D01*
X127161904Y-56385714D01*
X126923809Y-56385714D01*
X126828571Y-56338095D01*
X126780952Y-56290476D01*
X126733333Y-56195238D01*
X126733333Y-56004761D01*
X126780952Y-55909523D01*
X126828571Y-55861904D01*
X126923809Y-55814285D01*
%TO.C,J2*%
X172286242Y-57582189D02*
X172065516Y-58261515D01*
X172066659Y-58412095D01*
X172127805Y-58532102D01*
X172248955Y-58621536D01*
X172339532Y-58650966D01*
X171849216Y-57540329D02*
X171818643Y-57480326D01*
X171742781Y-57405607D01*
X171516339Y-57332032D01*
X171411047Y-57347890D01*
X171351044Y-57378463D01*
X171276325Y-57454325D01*
X171246895Y-57544902D01*
X171248038Y-57695482D01*
X171614918Y-58415524D01*
X171026168Y-58224228D01*
%TO.C,C14*%
X113442857Y-111757142D02*
X113490476Y-111804761D01*
X113633333Y-111852380D01*
X113728571Y-111852380D01*
X113871428Y-111804761D01*
X113966666Y-111709523D01*
X114014285Y-111614285D01*
X114061904Y-111423809D01*
X114061904Y-111280952D01*
X114014285Y-111090476D01*
X113966666Y-110995238D01*
X113871428Y-110900000D01*
X113728571Y-110852380D01*
X113633333Y-110852380D01*
X113490476Y-110900000D01*
X113442857Y-110947619D01*
X112490476Y-111852380D02*
X113061904Y-111852380D01*
X112776190Y-111852380D02*
X112776190Y-110852380D01*
X112871428Y-110995238D01*
X112966666Y-111090476D01*
X113061904Y-111138095D01*
X111633333Y-111185714D02*
X111633333Y-111852380D01*
X111871428Y-110804761D02*
X112109523Y-111519047D01*
X111490476Y-111519047D01*
%TO.C,L2*%
X131309132Y-100226569D02*
X131645850Y-100563287D01*
X132352956Y-99856180D01*
X131746865Y-99384775D02*
X131746865Y-99317432D01*
X131713193Y-99216417D01*
X131544834Y-99048058D01*
X131443819Y-99014386D01*
X131376475Y-99014386D01*
X131275460Y-99048058D01*
X131208117Y-99115401D01*
X131140773Y-99250088D01*
X131140773Y-100058211D01*
X130703040Y-99620478D01*
%TO.C,C6*%
X111687142Y-106933333D02*
X111734761Y-106885714D01*
X111782380Y-106742857D01*
X111782380Y-106647619D01*
X111734761Y-106504761D01*
X111639523Y-106409523D01*
X111544285Y-106361904D01*
X111353809Y-106314285D01*
X111210952Y-106314285D01*
X111020476Y-106361904D01*
X110925238Y-106409523D01*
X110830000Y-106504761D01*
X110782380Y-106647619D01*
X110782380Y-106742857D01*
X110830000Y-106885714D01*
X110877619Y-106933333D01*
X110782380Y-107790476D02*
X110782380Y-107600000D01*
X110830000Y-107504761D01*
X110877619Y-107457142D01*
X111020476Y-107361904D01*
X111210952Y-107314285D01*
X111591904Y-107314285D01*
X111687142Y-107361904D01*
X111734761Y-107409523D01*
X111782380Y-107504761D01*
X111782380Y-107695238D01*
X111734761Y-107790476D01*
X111687142Y-107838095D01*
X111591904Y-107885714D01*
X111353809Y-107885714D01*
X111258571Y-107838095D01*
X111210952Y-107790476D01*
X111163333Y-107695238D01*
X111163333Y-107504761D01*
X111210952Y-107409523D01*
X111258571Y-107361904D01*
X111353809Y-107314285D01*
%TO.C,J8*%
X128333333Y-92352380D02*
X128333333Y-93066666D01*
X128380952Y-93209523D01*
X128476190Y-93304761D01*
X128619047Y-93352380D01*
X128714285Y-93352380D01*
X127714285Y-92780952D02*
X127809523Y-92733333D01*
X127857142Y-92685714D01*
X127904761Y-92590476D01*
X127904761Y-92542857D01*
X127857142Y-92447619D01*
X127809523Y-92400000D01*
X127714285Y-92352380D01*
X127523809Y-92352380D01*
X127428571Y-92400000D01*
X127380952Y-92447619D01*
X127333333Y-92542857D01*
X127333333Y-92590476D01*
X127380952Y-92685714D01*
X127428571Y-92733333D01*
X127523809Y-92780952D01*
X127714285Y-92780952D01*
X127809523Y-92828571D01*
X127857142Y-92876190D01*
X127904761Y-92971428D01*
X127904761Y-93161904D01*
X127857142Y-93257142D01*
X127809523Y-93304761D01*
X127714285Y-93352380D01*
X127523809Y-93352380D01*
X127428571Y-93304761D01*
X127380952Y-93257142D01*
X127333333Y-93161904D01*
X127333333Y-92971428D01*
X127380952Y-92876190D01*
X127428571Y-92828571D01*
X127523809Y-92780952D01*
%TO.C,C4*%
X137257142Y-52733333D02*
X137304761Y-52685714D01*
X137352380Y-52542857D01*
X137352380Y-52447619D01*
X137304761Y-52304761D01*
X137209523Y-52209523D01*
X137114285Y-52161904D01*
X136923809Y-52114285D01*
X136780952Y-52114285D01*
X136590476Y-52161904D01*
X136495238Y-52209523D01*
X136400000Y-52304761D01*
X136352380Y-52447619D01*
X136352380Y-52542857D01*
X136400000Y-52685714D01*
X136447619Y-52733333D01*
X136685714Y-53590476D02*
X137352380Y-53590476D01*
X136304761Y-53352380D02*
X137019047Y-53114285D01*
X137019047Y-53733333D01*
%TO.C,R2*%
X172722380Y-63633333D02*
X172246190Y-63300000D01*
X172722380Y-63061904D02*
X171722380Y-63061904D01*
X171722380Y-63442857D01*
X171770000Y-63538095D01*
X171817619Y-63585714D01*
X171912857Y-63633333D01*
X172055714Y-63633333D01*
X172150952Y-63585714D01*
X172198571Y-63538095D01*
X172246190Y-63442857D01*
X172246190Y-63061904D01*
X171817619Y-64014285D02*
X171770000Y-64061904D01*
X171722380Y-64157142D01*
X171722380Y-64395238D01*
X171770000Y-64490476D01*
X171817619Y-64538095D01*
X171912857Y-64585714D01*
X172008095Y-64585714D01*
X172150952Y-64538095D01*
X172722380Y-63966666D01*
X172722380Y-64585714D01*
%TO.C,J4*%
X104664109Y-92815839D02*
X104751159Y-93524801D01*
X104815833Y-93660790D01*
X104921968Y-93743711D01*
X105069563Y-93773566D01*
X105164091Y-93761959D01*
X103806714Y-93256951D02*
X103887961Y-93918648D01*
X103996609Y-92849821D02*
X104319979Y-93529766D01*
X103705545Y-93605209D01*
%TO.C,C12*%
X114742857Y-96257142D02*
X114790476Y-96304761D01*
X114933333Y-96352380D01*
X115028571Y-96352380D01*
X115171428Y-96304761D01*
X115266666Y-96209523D01*
X115314285Y-96114285D01*
X115361904Y-95923809D01*
X115361904Y-95780952D01*
X115314285Y-95590476D01*
X115266666Y-95495238D01*
X115171428Y-95400000D01*
X115028571Y-95352380D01*
X114933333Y-95352380D01*
X114790476Y-95400000D01*
X114742857Y-95447619D01*
X113790476Y-96352380D02*
X114361904Y-96352380D01*
X114076190Y-96352380D02*
X114076190Y-95352380D01*
X114171428Y-95495238D01*
X114266666Y-95590476D01*
X114361904Y-95638095D01*
X113409523Y-95447619D02*
X113361904Y-95400000D01*
X113266666Y-95352380D01*
X113028571Y-95352380D01*
X112933333Y-95400000D01*
X112885714Y-95447619D01*
X112838095Y-95542857D01*
X112838095Y-95638095D01*
X112885714Y-95780952D01*
X113457142Y-96352380D01*
X112838095Y-96352380D01*
%TO.C,R10*%
X111542857Y-100982380D02*
X111876190Y-100506190D01*
X112114285Y-100982380D02*
X112114285Y-99982380D01*
X111733333Y-99982380D01*
X111638095Y-100030000D01*
X111590476Y-100077619D01*
X111542857Y-100172857D01*
X111542857Y-100315714D01*
X111590476Y-100410952D01*
X111638095Y-100458571D01*
X111733333Y-100506190D01*
X112114285Y-100506190D01*
X110590476Y-100982380D02*
X111161904Y-100982380D01*
X110876190Y-100982380D02*
X110876190Y-99982380D01*
X110971428Y-100125238D01*
X111066666Y-100220476D01*
X111161904Y-100268095D01*
X109971428Y-99982380D02*
X109876190Y-99982380D01*
X109780952Y-100030000D01*
X109733333Y-100077619D01*
X109685714Y-100172857D01*
X109638095Y-100363333D01*
X109638095Y-100601428D01*
X109685714Y-100791904D01*
X109733333Y-100887142D01*
X109780952Y-100934761D01*
X109876190Y-100982380D01*
X109971428Y-100982380D01*
X110066666Y-100934761D01*
X110114285Y-100887142D01*
X110161904Y-100791904D01*
X110209523Y-100601428D01*
X110209523Y-100363333D01*
X110161904Y-100172857D01*
X110114285Y-100077619D01*
X110066666Y-100030000D01*
X109971428Y-99982380D01*
D14*
%TO.C,C8*%
X109390000Y-103946267D02*
X109390000Y-103653733D01*
X110410000Y-103946267D02*
X110410000Y-103653733D01*
%TO.C,U4*%
X132000000Y-54510000D02*
X130200000Y-54510000D01*
X130200000Y-51290000D02*
X132650000Y-51290000D01*
%TO.C,C2*%
X129053733Y-56490000D02*
X129346267Y-56490000D01*
X129053733Y-57510000D02*
X129346267Y-57510000D01*
%TO.C,D2*%
X137015000Y-49235000D02*
X137015000Y-47765000D01*
X137015000Y-47765000D02*
X139300000Y-47765000D01*
X139300000Y-49235000D02*
X137015000Y-49235000D01*
%TO.C,R8*%
X131154724Y-49422500D02*
X130645276Y-49422500D01*
X131154724Y-48377500D02*
X130645276Y-48377500D01*
%TO.C,R4*%
X179722500Y-64345276D02*
X179722500Y-64854724D01*
X178677500Y-64345276D02*
X178677500Y-64854724D01*
%TO.C,J6*%
X104010000Y-71310000D02*
X104010000Y-70260000D01*
X102860000Y-71310000D02*
X104010000Y-71310000D01*
X104010000Y-63140000D02*
X105000000Y-63140000D01*
X100890000Y-63260000D02*
X100890000Y-70140000D01*
X102860000Y-62090000D02*
X104010000Y-62090000D01*
X104010000Y-62090000D02*
X104010000Y-63140000D01*
%TO.C,Y2*%
X126865685Y-96375736D02*
X126724264Y-96234315D01*
X127502082Y-97153553D02*
X126653553Y-98002082D01*
X125875736Y-97365685D02*
X125734315Y-97224264D01*
%TO.C,J12*%
X114160000Y-123410000D02*
X118040000Y-123410000D01*
X119210000Y-121440000D02*
X119210000Y-120290000D01*
X112990000Y-121440000D02*
X112990000Y-120290000D01*
X112990000Y-120290000D02*
X114040000Y-120290000D01*
X119210000Y-120290000D02*
X118160000Y-120290000D01*
X114040000Y-120290000D02*
X114040000Y-119300000D01*
%TO.C,C16*%
X102290000Y-112146267D02*
X102290000Y-111853733D01*
X103310000Y-112146267D02*
X103310000Y-111853733D01*
%TO.C,C10*%
X111046267Y-96990000D02*
X110753733Y-96990000D01*
X111046267Y-98010000D02*
X110753733Y-98010000D01*
%TO.C,J10*%
X123160000Y-122510000D02*
X130040000Y-122510000D01*
X131210000Y-119390000D02*
X130160000Y-119390000D01*
X121990000Y-120540000D02*
X121990000Y-119390000D01*
X131210000Y-120540000D02*
X131210000Y-119390000D01*
X123040000Y-119390000D02*
X123040000Y-118400000D01*
X121990000Y-119390000D02*
X123040000Y-119390000D01*
%TO.C,R6*%
X126377500Y-52645276D02*
X126377500Y-53154724D01*
X127422500Y-52645276D02*
X127422500Y-53154724D01*
%TO.C,J2*%
X173952902Y-57004628D02*
X174570936Y-55102514D01*
X182892833Y-59909387D02*
X183510867Y-58007274D01*
X184098000Y-56200267D02*
X184685132Y-54393259D01*
X175745201Y-51488500D02*
X184685132Y-54393259D01*
X175158068Y-53295507D02*
X175745201Y-51488500D01*
%TO.C,C14*%
X109946267Y-110790000D02*
X109653733Y-110790000D01*
X109946267Y-111810000D02*
X109653733Y-111810000D01*
%TO.C,L2*%
X130981729Y-100560480D02*
X130739520Y-100318271D01*
X130260480Y-101281729D02*
X130018271Y-101039520D01*
%TO.C,C6*%
X110410000Y-107246267D02*
X110410000Y-106953733D01*
X109390000Y-107246267D02*
X109390000Y-106953733D01*
%TO.C,J8*%
X117090000Y-93810000D02*
X118140000Y-93810000D01*
X125140000Y-90690000D02*
X118260000Y-90690000D01*
X117090000Y-92660000D02*
X117090000Y-93810000D01*
X125260000Y-93810000D02*
X125260000Y-94800000D01*
X126310000Y-93810000D02*
X125260000Y-93810000D01*
X126310000Y-92660000D02*
X126310000Y-93810000D01*
%TO.C,C4*%
X134890000Y-52753733D02*
X134890000Y-53046267D01*
X135910000Y-52753733D02*
X135910000Y-53046267D01*
%TO.C,R2*%
X174222500Y-63545276D02*
X174222500Y-64054724D01*
X173177500Y-63545276D02*
X173177500Y-64054724D01*
%TO.C,SW3*%
X141970000Y-90170000D02*
X141970000Y-86030000D01*
X138830000Y-86030000D02*
X138830000Y-90170000D01*
X141970000Y-86030000D02*
X141670000Y-86030000D01*
X141670000Y-90170000D02*
X141970000Y-90170000D01*
X138830000Y-90170000D02*
X139130000Y-90170000D01*
X139130000Y-86030000D02*
X138830000Y-86030000D01*
%TO.C,J4*%
X104842329Y-95336710D02*
X106718241Y-95106377D01*
X106728167Y-95105158D02*
X107020653Y-97487269D01*
X102757982Y-95592636D02*
X103254255Y-95531701D01*
X104561649Y-110282319D02*
X105057922Y-110221384D01*
X108531833Y-109794842D02*
X108239347Y-107412731D01*
X104561649Y-110282319D02*
X102757982Y-95592636D01*
X106645995Y-110026393D02*
X108521908Y-109796060D01*
%TO.C,C12*%
X111046267Y-95390000D02*
X110753733Y-95390000D01*
X111046267Y-96410000D02*
X110753733Y-96410000D01*
%TO.C,J16*%
X131502064Y-81240000D02*
X130297936Y-81240000D01*
X131502064Y-83960000D02*
X130297936Y-83960000D01*
%TO.C,R10*%
X110645276Y-98577500D02*
X111154724Y-98577500D01*
X110645276Y-99622500D02*
X111154724Y-99622500D01*
%TO.C,SW1*%
X144005000Y-91100000D02*
X144005000Y-91300000D01*
X145055000Y-86250000D02*
X145845000Y-86250000D01*
X145845000Y-93150000D02*
X145055000Y-93150000D01*
X146855000Y-86850000D02*
X146855000Y-92550000D01*
X144005000Y-88100000D02*
X144005000Y-89800000D01*
%TD*%
M02*
