%TF.GenerationSoftware,KiCad,Pcbnew,(5.99.0-12380-gca33ec05df)*%
%TF.CreationDate,2021-09-27T09:59:53+10:00*%
%TF.ProjectId,anaphase,616e6170-6861-4736-952e-6b696361645f,rev?*%
%TF.SameCoordinates,Original*%
%TF.FileFunction,Soldermask,Bot*%
%TF.FilePolarity,Negative*%
%FSLAX46Y46*%
G04 Gerber Fmt 4.6, Leading zero omitted, Abs format (unit mm)*
G04 Created by KiCad (PCBNEW (5.99.0-12380-gca33ec05df)) date 2021-09-27 09:59:53*
%MOMM*%
%LPD*%
G01*
G04 APERTURE LIST*
G04 Aperture macros list*
%AMRoundRect*
0 Rectangle with rounded corners*
0 $1 Rounding radius*
0 $2 $3 $4 $5 $6 $7 $8 $9 X,Y pos of 4 corners*
0 Add a 4 corners polygon primitive as box body*
4,1,4,$2,$3,$4,$5,$6,$7,$8,$9,$2,$3,0*
0 Add four circle primitives for the rounded corners*
1,1,$1+$1,$2,$3*
1,1,$1+$1,$4,$5*
1,1,$1+$1,$6,$7*
1,1,$1+$1,$8,$9*
0 Add four rect primitives between the rounded corners*
20,1,$1+$1,$2,$3,$4,$5,0*
20,1,$1+$1,$4,$5,$6,$7,0*
20,1,$1+$1,$6,$7,$8,$9,0*
20,1,$1+$1,$8,$9,$2,$3,0*%
%AMHorizOval*
0 Thick line with rounded ends*
0 $1 width*
0 $2 $3 position (X,Y) of the first rounded end (center of the circle)*
0 $4 $5 position (X,Y) of the second rounded end (center of the circle)*
0 Add line between two ends*
20,1,$1,$2,$3,$4,$5,0*
0 Add two circle primitives to create the rounded ends*
1,1,$1,$2,$3*
1,1,$1,$4,$5*%
%AMRotRect*
0 Rectangle, with rotation*
0 The origin of the aperture is its center*
0 $1 length*
0 $2 width*
0 $3 Rotation angle, in degrees counterclockwise*
0 Add horizontal line*
21,1,$1,$2,0,0,$3*%
G04 Aperture macros list end*
%ADD10C,0.650000*%
%ADD11HorizOval,1.000000X0.169959X0.523081X-0.169959X-0.523081X0*%
%ADD12HorizOval,1.000000X0.092705X0.285317X-0.092705X-0.285317X0*%
%ADD13C,0.900000*%
%ADD14R,1.700000X1.700000*%
%ADD15O,1.700000X1.700000*%
%ADD16RoundRect,0.237500X0.237500X-0.300000X0.237500X0.300000X-0.237500X0.300000X-0.237500X-0.300000X0*%
%ADD17R,1.060000X0.650000*%
%ADD18RoundRect,0.237500X-0.300000X-0.237500X0.300000X-0.237500X0.300000X0.237500X-0.300000X0.237500X0*%
%ADD19RoundRect,0.218750X-0.218750X-0.256250X0.218750X-0.256250X0.218750X0.256250X-0.218750X0.256250X0*%
%ADD20RoundRect,0.237500X0.250000X0.237500X-0.250000X0.237500X-0.250000X-0.237500X0.250000X-0.237500X0*%
%ADD21RoundRect,0.237500X-0.237500X0.250000X-0.237500X-0.250000X0.237500X-0.250000X0.237500X0.250000X0*%
%ADD22RoundRect,0.150000X-0.625000X0.150000X-0.625000X-0.150000X0.625000X-0.150000X0.625000X0.150000X0*%
%ADD23RoundRect,0.250000X-0.650000X0.350000X-0.650000X-0.350000X0.650000X-0.350000X0.650000X0.350000X0*%
%ADD24RotRect,0.600000X1.200000X135.000000*%
%ADD25RoundRect,0.150000X-0.150000X-0.625000X0.150000X-0.625000X0.150000X0.625000X-0.150000X0.625000X0*%
%ADD26RoundRect,0.250000X-0.350000X-0.650000X0.350000X-0.650000X0.350000X0.650000X-0.350000X0.650000X0*%
%ADD27RotRect,0.650000X1.000000X225.000000*%
%ADD28RotRect,0.650000X1.000000X135.000000*%
%ADD29RoundRect,0.237500X0.300000X0.237500X-0.300000X0.237500X-0.300000X-0.237500X0.300000X-0.237500X0*%
%ADD30RotRect,0.600000X1.450000X342.000000*%
%ADD31RotRect,0.300000X1.450000X342.000000*%
%ADD32HorizOval,1.000000X-0.092705X-0.285317X0.092705X0.285317X0*%
%ADD33HorizOval,1.000000X-0.169959X-0.523081X0.169959X0.523081X0*%
%ADD34RoundRect,0.237500X0.371231X-0.035355X-0.035355X0.371231X-0.371231X0.035355X0.035355X-0.371231X0*%
%ADD35RoundRect,0.150000X0.150000X0.625000X-0.150000X0.625000X-0.150000X-0.625000X0.150000X-0.625000X0*%
%ADD36RoundRect,0.250000X0.350000X0.650000X-0.350000X0.650000X-0.350000X-0.650000X0.350000X-0.650000X0*%
%ADD37RoundRect,0.237500X-0.237500X0.300000X-0.237500X-0.300000X0.237500X-0.300000X0.237500X0.300000X0*%
%ADD38RoundRect,0.200000X-0.800000X0.200000X-0.800000X-0.200000X0.800000X-0.200000X0.800000X0.200000X0*%
%ADD39RotRect,0.300000X1.000000X97.000000*%
%ADD40RotRect,2.000000X1.300000X97.000000*%
%ADD41RoundRect,0.250000X0.375000X1.075000X-0.375000X1.075000X-0.375000X-1.075000X0.375000X-1.075000X0*%
%ADD42RoundRect,0.237500X-0.250000X-0.237500X0.250000X-0.237500X0.250000X0.237500X-0.250000X0.237500X0*%
%ADD43R,0.800000X1.000000*%
%ADD44R,1.500000X0.700000*%
G04 APERTURE END LIST*
D10*
%TO.C,J1*%
X175458002Y-58229688D03*
X180955109Y-60015806D03*
D11*
X182151341Y-60961760D03*
X173934213Y-58291853D03*
D12*
X183443032Y-56986344D03*
X175225904Y-54316437D03*
%TD*%
D13*
%TO.C,SW2*%
X145455000Y-88200000D03*
X145455000Y-91200000D03*
%TD*%
D14*
%TO.C,J13*%
X146300000Y-72200000D03*
D15*
X146300000Y-74740000D03*
X146300000Y-77280000D03*
X146300000Y-79820000D03*
%TD*%
D16*
%TO.C,C8*%
X109900000Y-104662500D03*
X109900000Y-102937500D03*
%TD*%
D17*
%TO.C,U4*%
X132200000Y-51950000D03*
X132200000Y-52900000D03*
X132200000Y-53850000D03*
X130000000Y-53850000D03*
X130000000Y-51950000D03*
%TD*%
D18*
%TO.C,C2*%
X128337500Y-57000000D03*
X130062500Y-57000000D03*
%TD*%
D19*
%TO.C,D2*%
X137712500Y-48500000D03*
X139287500Y-48500000D03*
%TD*%
D20*
%TO.C,R8*%
X131812500Y-48900000D03*
X129987500Y-48900000D03*
%TD*%
D21*
%TO.C,R4*%
X179200000Y-63687500D03*
X179200000Y-65512500D03*
%TD*%
D22*
%TO.C,J6*%
X104225000Y-63700000D03*
X104225000Y-64700000D03*
X104225000Y-65700000D03*
X104225000Y-66700000D03*
X104225000Y-67700000D03*
X104225000Y-68700000D03*
X104225000Y-69700000D03*
D23*
X101700000Y-71000000D03*
X101700000Y-62400000D03*
%TD*%
D24*
%TO.C,Y2*%
X126724264Y-97224264D03*
X125875736Y-96375736D03*
%TD*%
D25*
%TO.C,J12*%
X114600000Y-120075000D03*
X115600000Y-120075000D03*
X116600000Y-120075000D03*
X117600000Y-120075000D03*
D26*
X118900000Y-122600000D03*
X113300000Y-122600000D03*
%TD*%
D27*
%TO.C,U2*%
X113683586Y-106262842D03*
X114581612Y-105364816D03*
X115479638Y-104466791D03*
X116377663Y-103568765D03*
X117275689Y-102670739D03*
X118173715Y-101772714D03*
X119071740Y-100874688D03*
X119969766Y-99976662D03*
X120867791Y-99078637D03*
X121765817Y-98180611D03*
D28*
X124500906Y-97777560D03*
X123741473Y-99437847D03*
X125398932Y-98675586D03*
X124639499Y-100335873D03*
X126296957Y-99573612D03*
X125537525Y-101233898D03*
X127194983Y-100471637D03*
X126435550Y-102131924D03*
X128093008Y-101369663D03*
X127333576Y-103029950D03*
X128991034Y-102267688D03*
X128231601Y-103927975D03*
X129889060Y-103165714D03*
X129129627Y-104826001D03*
X130787085Y-104063740D03*
D27*
X130419390Y-106834184D03*
X129521364Y-107732210D03*
X127513181Y-106801657D03*
X128623339Y-108630235D03*
X126615155Y-107699683D03*
X127725313Y-109528261D03*
X125717130Y-108597708D03*
X126827287Y-110426286D03*
X124819104Y-109495734D03*
X125929262Y-111324312D03*
X123921078Y-110393760D03*
X125031236Y-112222338D03*
X123023053Y-111291785D03*
X124133210Y-113120363D03*
X122125027Y-112189811D03*
X123235185Y-114018389D03*
X121227002Y-113087836D03*
X122337159Y-114916415D03*
%TD*%
D16*
%TO.C,C16*%
X102800000Y-112862500D03*
X102800000Y-111137500D03*
%TD*%
D29*
%TO.C,C10*%
X111762500Y-97500000D03*
X110037500Y-97500000D03*
%TD*%
D25*
%TO.C,J10*%
X123600000Y-119175000D03*
X124600000Y-119175000D03*
X125600000Y-119175000D03*
X126600000Y-119175000D03*
X127600000Y-119175000D03*
X128600000Y-119175000D03*
X129600000Y-119175000D03*
D26*
X122300000Y-121700000D03*
X130900000Y-121700000D03*
%TD*%
D21*
%TO.C,R6*%
X126900000Y-51987500D03*
X126900000Y-53812500D03*
%TD*%
D10*
%TO.C,J2*%
X180955109Y-60015806D03*
X175458002Y-58229688D03*
D30*
X174669093Y-59492718D03*
X175429938Y-59739932D03*
D31*
X176571206Y-60110752D03*
X177522262Y-60419769D03*
X177997790Y-60574278D03*
X178948847Y-60883295D03*
D30*
X180090115Y-61254115D03*
X180850960Y-61501329D03*
X180850960Y-61501329D03*
X180090115Y-61254115D03*
D31*
X179424375Y-61037803D03*
X178473319Y-60728786D03*
X177046734Y-60265261D03*
X176095677Y-59956244D03*
D30*
X175429938Y-59739932D03*
X174669093Y-59492718D03*
D32*
X183443032Y-56986344D03*
D33*
X182151341Y-60961760D03*
X173934213Y-58291853D03*
D32*
X175225904Y-54316437D03*
%TD*%
D29*
%TO.C,C14*%
X110662500Y-111300000D03*
X108937500Y-111300000D03*
%TD*%
D34*
%TO.C,L2*%
X131118718Y-101418718D03*
X129881282Y-100181282D03*
%TD*%
D16*
%TO.C,C6*%
X109900000Y-107962500D03*
X109900000Y-106237500D03*
%TD*%
D35*
%TO.C,J8*%
X124700000Y-94025000D03*
X123700000Y-94025000D03*
X122700000Y-94025000D03*
X121700000Y-94025000D03*
X120700000Y-94025000D03*
X119700000Y-94025000D03*
X118700000Y-94025000D03*
D36*
X117400000Y-91500000D03*
X126000000Y-91500000D03*
%TD*%
D37*
%TO.C,C4*%
X135400000Y-52037500D03*
X135400000Y-53762500D03*
%TD*%
D21*
%TO.C,R2*%
X173700000Y-62887500D03*
X173700000Y-64712500D03*
%TD*%
D38*
%TO.C,SW3*%
X140400000Y-86000000D03*
X140400000Y-90200000D03*
%TD*%
D39*
%TO.C,J4*%
X108208879Y-107164594D03*
X108147945Y-106668321D03*
X108087010Y-106172048D03*
X108026075Y-105675775D03*
X107965141Y-105179502D03*
X107904206Y-104683229D03*
X107843271Y-104186956D03*
X107782337Y-103690683D03*
X107721402Y-103194410D03*
X107660467Y-102698137D03*
X107599533Y-102201863D03*
X107538598Y-101705590D03*
X107477663Y-101209317D03*
X107416729Y-100713044D03*
X107355794Y-100216771D03*
X107294859Y-99720498D03*
X107233925Y-99224225D03*
X107172990Y-98727952D03*
X107112055Y-98231679D03*
X107051121Y-97735406D03*
D40*
X104090947Y-95781597D03*
X105809304Y-109776498D03*
%TD*%
D29*
%TO.C,C12*%
X111762500Y-95900000D03*
X110037500Y-95900000D03*
%TD*%
D41*
%TO.C,J16*%
X132300000Y-82600000D03*
X129500000Y-82600000D03*
%TD*%
D42*
%TO.C,R10*%
X109987500Y-99100000D03*
X111812500Y-99100000D03*
%TD*%
D43*
%TO.C,SW1*%
X146555000Y-93350000D03*
D13*
X145455000Y-88200000D03*
D43*
X144345000Y-93350000D03*
X146555000Y-86050000D03*
D13*
X145455000Y-91200000D03*
D43*
X144345000Y-86050000D03*
D44*
X143695000Y-87450000D03*
X143695000Y-90450000D03*
X143695000Y-91950000D03*
%TD*%
M02*
